<?xml version="1.0" encoding="UTF-8"?>
<!DOCTYPE svg PUBLIC "-//W3C//DTD SVG 1.1//EN" "http://www.w3.org/Graphics/SVG/1.1/DTD/svg11.dtd">
<!-- Creator: CorelDRAW -->
<svg xmlns="http://www.w3.org/2000/svg" xml:space="preserve" width="39.3701in" height="31.4961in" version="1.1" style="shape-rendering:geometricPrecision; text-rendering:geometricPrecision; image-rendering:optimizeQuality; fill-rule:evenodd; clip-rule:evenodd"
viewBox="0 0 39370.08 31496.06"
 xmlns:xlink="http://www.w3.org/1999/xlink"
 xmlns:xodm="http://www.corel.com/coreldraw/odm/2003">
 <defs>
  <style type="text/css">
   <![CDATA[
    .fil0 {fill:black}
    .fil1 {fill:black}
   ]]>
  </style>
 </defs>
 <g id="Layer_x0020_1">
  <metadata id="CorelCorpID_0Corel-Layer"/>
  <g id="_1209181367824">
   <path class="fil0" d="M12738.69 19359.63l-205.22 0 -205.22 0 0 -1770.5c0,-108.73 16.12,-179.93 55.9,-249.41 73.28,-155.43 81.54,-158.19 149.32,-257.52 -228.5,2.89 -193.28,87.63 -478.84,40.16 -160.55,-26.69 -280.23,-40.24 -450.67,-40.24l0 88.52c0,45.04 40.56,6.51 133.67,43.39 43.78,17.34 82.6,42.26 113.93,71.17 58.71,54.17 114.56,137.36 114.56,247.59l0 2366.03c0,170.05 -47.79,273.6 -182.13,340.96 -23.4,11.74 -38.67,18.91 -67.91,20.62 -69.36,4.05 -63.82,-19.66 -63.82,89.09 0,29.59 17.18,24.14 56.33,24.14 251.47,0 311.53,-80.26 476.96,-50.54 153.67,27.61 329.07,50.54 504.86,50.54l0 -112.67c-216.25,0 -362.15,-161.94 -362.15,-362.15l0 -418.48 402.39 0c47.2,0 164.58,54.13 197.77,75.85 102.77,67.26 222.77,219.41 290.43,329.24 39.39,63.94 177.18,209.86 233.6,257.31 168.31,141.52 169.41,140.56 359.52,203.82 116.63,38.8 426.48,27.07 568.46,27.07l0 -120.72c-212.11,0 -423.58,-78.86 -549.63,-230.99l-233.01 -265.95c-254.31,-267.02 -469.99,-396.35 -859.09,-396.35z"/>
   <path class="fil0" d="M14084.52 17382.52c121.73,-161.66 133.19,-117.84 278.44,-170.15 0,-39.44 11.92,-103.29 24.14,-128.76 -228.47,0 -206.81,48.29 -354.1,48.29l-386.29 -56.33 0 120.71c73.35,0 181.57,55.7 239.25,98.75 80.1,59.78 70.52,46.65 28.28,126.76l-1483.39 1937.84 131.8 43.99 1521.87 -2021.1z"/>
   <path class="fil1" d="M18347.76 17104.96c0,146.81 -0.38,55.85 134.78,106.65 125.65,47.22 235.41,183.41 235.41,319.88l0 2406.26c0,109.39 -70.37,203.69 -138.1,248.19 -42.16,27.7 -159.61,63.78 -219.36,70.88 -36.41,4.33 -41.62,-5.21 -85.17,-5.21l0 120.72c324.92,0 360.09,-81.39 533.32,-50.51 156.41,27.88 324.78,50.51 504.84,50.51l0 -120.72c-137.19,0 -256.31,-19.06 -352.78,-81.8 -39.44,-25.65 -72.03,-62.52 -95.31,-105.89 -33.22,-61.87 -35.15,-75.96 -34.8,-166.39l0.03 -2406.29 77.69 163.74c15.62,32.49 23.72,46.83 38.38,82.34 14.05,34.05 27.44,53.22 41.49,87.27 14.46,35.03 22.14,50.32 38.33,82.39l584.62 1266.35c55.24,111.8 101.5,227.22 158.48,340.48l76.15 165.28c43.36,107.09 145.9,303.88 195.41,424.26 38.78,94.28 23.13,75.82 189.75,75.82 28.61,0 26.57,-29.3 46.03,-74.69 14.17,-33.07 23.34,-56.39 37.84,-90.92l956.6 -2310.77c24.5,-61.52 45.88,-116.46 72.86,-176.63l77.73 -179.79 0 2438.45c0,206.63 8.65,353.62 -160.81,442.76 -155.42,81.75 -153.04,-36.8 -153.04,120.58 0,29.59 17.18,24.14 56.33,24.14 261.56,0 299.86,-82.35 476.96,-50.54 155.68,27.96 326.02,50.54 504.86,50.54l0 -112.67 -48.28 0c-168,0 -313.86,-173.94 -313.86,-346.05l0 -2406.26c0,-114.22 47.98,-173.48 106.46,-231.54 128.59,-127.65 231.54,-49.62 231.54,-106.46l0 -88.52c-144.21,0 -196.5,2.72 -333.28,36.92 -86.94,21.74 -165.29,66.07 -238.11,67.7 -31.7,-47.34 -40.24,-35.79 -40.24,-104.62l-152.91 0c0,178.63 -32.63,240.16 -107.37,407.68l-414.5 985.8c-125.93,313.33 -281.44,658.9 -412.72,979.52 -21.49,52.47 -48.82,110.61 -70.31,163.08 -11.76,28.73 -21.5,53.42 -33.03,79.64 -10.12,23.01 -30.25,62.25 -32.42,88.3l-40.35 -80.36c-109.37,-221.59 -233.58,-523.45 -343.15,-751.34l-230.78 -501.57c-52.34,-112.32 -99.42,-218.3 -153.04,-329.82 -27.81,-57.85 -46.98,-108.8 -74.92,-166.51 -27.92,-57.69 -53.93,-111.1 -78.6,-170.88l-114.72 -247.42c-57.08,-113.47 -115.11,-229.52 -135.09,-355.82 -17.8,-112.51 43.26,-100.3 -149.17,-100.3 0,227.92 -170.41,0 -547.24,0 -51.79,0 -72.43,-7.15 -72.43,24.14z"/>
   <path class="fil1" d="M26859.01 20251.62c-281.61,0 -371.22,33.95 -549.38,-142.72 -75.77,-75.15 -110.54,-184.15 -110.54,-332.09l0 -2140.69c0,-126.33 50.62,-231.39 114.52,-295.91 39.58,-39.96 62.16,-61.56 111.04,-90.15 121.45,-71.03 291.96,-48.51 458.49,-48.51 229.1,0 444.83,51.36 612.66,111.64 158.29,56.85 270.65,131.14 387.33,240.39 9.37,8.77 16.73,14.33 25.34,22.94l106 119.33c307.85,394.32 357.36,934.31 274.74,1426.82 -79.27,472.51 -360.82,841.5 -805.81,1021.02 -155.98,62.92 -408.85,107.94 -624.4,107.94zm-1335.92 -3058.13l56.32 -4.01c233.39,-1.37 257.54,249.52 257.54,446.63l0 2382.12c0,127.56 -127.06,241.43 -225.33,241.43l-88.53 0 0 112.67c284.62,0 404,-48.29 603.58,-48.29 110.84,0 191.67,27.72 297.7,32.25 417.4,17.84 832.35,52.19 1237.06,-107.02 109.41,-43.04 191.01,-75.85 285.63,-132.85 130.46,-78.59 142.47,-95.94 246.69,-179.84 147.01,-118.35 285.85,-310.44 368.79,-476.22 204.72,-409.19 208.91,-1026.13 5.37,-1448.79 -51.45,-106.85 -126.09,-233.86 -202.19,-320.91 -130.62,-149.43 -217.77,-231.69 -399.44,-340.95 -264.89,-159.31 -655.52,-268.88 -994.61,-268.88 -208.36,0 -419.85,-9.19 -624.33,19.49 -119.26,16.72 -145.81,28.79 -277.02,28.79 -84.8,0 -282.1,-48.28 -547.24,-48.28l0 112.67z"/>
   <path class="fil1" d="M28745.19 17169.35c0,57.5 126.74,-20.27 228.93,117.12 57.17,76.86 84.93,154.5 84.93,261.12l0 2357.98c0,96.5 -25.02,172.32 -61.57,236.2 -32.85,57.43 -146.7,117.9 -187.91,117.9l-64.38 0 0 112.67c277.17,0 414.04,-48.29 587.48,-48.29 95.73,0 175.46,20.64 258.97,30.75 244.31,29.56 688.78,17.54 948.19,17.54 254.42,0 407.68,-88.24 459.81,-95.48 34.05,-4.74 41.27,-2.13 71.34,-9.14 15.95,23.82 24.61,21.09 37.03,51.5 24.54,60.1 -14.61,53.12 123.93,53.12 0,-183.93 -94.22,-219.2 -61.37,-342.83 25.91,-97.48 61.37,-251.13 61.37,-365.37l-120.71 0c0,311.84 -303.98,587.48 -539.2,587.48l-740.39 0c-66.07,0 -120.25,-19.54 -166.52,-42.72 -26.3,-13.18 -42.8,-22.46 -64.46,-40.16 -23.18,-18.94 -42.34,-30.48 -60.07,-52.6 -64.11,-80.03 -119.38,-164.89 -119.38,-307.15l0 -1054.25c288.52,0 800.83,-30.5 1024.77,93.86 143.19,79.52 144.55,174.68 166.29,220l112.67 0c-3.85,-46.28 -17.87,-95.7 -29.02,-139.98 -72.66,-288.64 20.81,-155.48 45.11,-447.5l-112.67 0c0,93.91 -71.69,123.86 -152.75,136.97 -250.85,40.58 -777.58,23.98 -1054.41,23.98l0 -1038.15c0,-177.36 127.32,-313.42 276.17,-383.74 106.8,-50.46 163.52,-25.88 287.06,-26.58 141.33,-0.81 538.39,-12.26 648.76,19.19 87.52,24.94 153.29,65.49 211.26,118.7l20.35 19.88c50.12,53.63 81.21,107.7 114.98,174.74 31.94,63.41 75.1,173.5 75.1,262.91l120.72 0c0,-288.98 -111.18,-349.65 -42.6,-509.37 35.74,-83.25 42.6,-99.63 42.6,-198.83l-104.62 0c-3.07,36.99 -25.19,104.62 -80.48,104.62 -52.95,0 -249.28,-104.62 -490.91,-104.62 -255.07,0 -684.27,-12.9 -923.12,18.46 -114.69,15.06 -148.11,29.82 -284.04,29.82 -80.56,0 -156.84,-24.3 -234.1,-31.47 -128.95,-11.96 -180.56,-16.81 -313.14,-16.81l0 88.52z"/>
   <path class="fil1" d="M8935.02 19479.04zm0 0zm0 0l182.69 -493.31c32.56,-83.41 59.68,-161.5 93.19,-244.82 95.94,-238.55 183.89,-494.7 279.33,-734.68l185.18 -490.83 19.84 36.49c86.22,211.93 171.12,467.35 258.36,683.22 24.98,61.82 46.59,119.41 68.79,180.69 21.8,60.2 45.51,116.59 68.48,180.99l203.88 544.56c20.81,92.93 9.28,138.14 -62.73,170.01 -138.56,61.34 -396.17,22.15 -580.79,22.83 -153.88,0.57 -132.2,-25.34 -355.54,6.56 -75.12,10.73 -139.89,22.84 -202.16,47.32 -31.91,12.54 -54.75,20.8 -82.84,37.87 -29.72,18.07 -50.31,36.09 -75.68,53.08zm338 -2285.55c73.35,0 181.57,55.7 239.26,98.75 25.01,18.67 45.13,39.81 66.56,54.16l-145.85 393.34c-10.54,31.75 -23.29,65.24 -36.9,99.91 -13.86,35.28 -22.96,64.69 -36.89,99.92 -13.53,34.21 -25.37,69.83 -36.67,100.15l-548.46 1495.65c-12.86,32.27 -23.34,64.91 -36.81,100 -35.22,91.78 -73.08,218.32 -113.23,297.21 -61.08,120.01 -160.87,207.9 -281.72,265.53 -77.48,36.95 -123.57,40.94 -212.06,61.56l0 112.67c30.76,-0.69 69.83,-10.85 97.91,-14.76l310.32 -44.15c116.12,-15.73 345.6,54 404.58,58.91l0 -120.72c-90.31,-7.51 -201.19,-102.91 -201.19,-193.14 0,-125.16 51.53,-271.17 125.25,-365.67 64.24,-82.35 188,-169.61 294.15,-204.8 60.55,-20.08 129.44,-40.56 208,-41.48 90.78,-1.07 160.31,8.84 241.7,8.42 185.73,-0.96 525.57,34.95 657.44,-26.73l88.22 -56.64c20.63,-20.54 1.86,-10.95 26.98,-29.35 49.42,103 265.57,640.3 265.57,700.15 0,40.65 -2.97,69.3 -21.52,107.24 -12.38,25.32 -30.21,38.15 -52.22,52.4 -21.44,13.88 -43.73,26.13 -70.01,34.61 -80.23,25.9 -73.54,-7.69 -73.54,111.56 0,38.57 41.35,19.77 99.96,11.44 147.61,-20.96 274.56,-43.64 423.14,-43.64 109.14,0 386.39,56.33 563.34,56.33l0 -112.67c-78.46,-1.75 -161.87,-26.66 -222.02,-51.61 -58.11,-24.1 -125.41,-72.97 -168.57,-113.1 -80.92,-75.24 -116.85,-162.39 -156.66,-261.82l-920.88 -2322.34c-60.13,-150.31 -60.94,-144.21 -60.94,-301.21 0,-39.44 11.92,-103.29 24.14,-128.76 -228.47,0 -206.81,48.28 -354.1,48.28l-386.29 -56.33 0 120.71z"/>
   <path class="fil1" d="M15381.01 19479.04zm0 0zm0 0l182.7 -493.31c32.56,-83.41 59.67,-161.5 93.18,-244.82 95.94,-238.55 183.89,-494.7 279.33,-734.68l185.18 -490.83 19.84 36.49c86.22,211.93 171.12,467.35 258.36,683.22 24.98,61.82 46.59,119.41 68.79,180.69 21.8,60.2 45.51,116.59 68.48,180.99l203.88 544.56c20.81,92.93 9.28,138.14 -62.73,170.01 -138.56,61.34 -396.17,22.15 -580.79,22.83 -153.88,0.57 -132.2,-25.34 -355.54,6.56 -75.12,10.73 -139.89,22.84 -202.16,47.32 -31.91,12.54 -54.75,20.8 -82.84,37.87 -29.72,18.07 -50.31,36.09 -75.68,53.08zm338 -2285.55c73.35,0 181.57,55.7 239.26,98.75 25.01,18.67 45.13,39.81 66.56,54.16l-145.85 393.34c-10.54,31.75 -23.29,65.24 -36.9,99.91 -13.85,35.28 -22.96,64.69 -36.89,99.92 -13.53,34.21 -25.37,69.83 -36.67,100.15l-548.46 1495.65c-12.86,32.27 -23.34,64.91 -36.81,100 -35.22,91.78 -73.08,218.32 -113.22,297.21 -61.09,120.01 -160.88,207.9 -281.72,265.53 -77.48,36.95 -123.57,40.94 -212.06,61.56l0 112.67c30.76,-0.69 69.83,-10.85 97.91,-14.76l310.32 -44.15c116.12,-15.73 345.6,54 404.58,58.91l0 -120.72c-90.31,-7.51 -201.19,-102.91 -201.19,-193.14 0,-125.16 51.52,-271.17 125.24,-365.67 64.24,-82.35 188,-169.61 294.15,-204.8 60.55,-20.08 129.44,-40.56 208,-41.48 90.78,-1.07 160.31,8.84 241.7,8.42 185.73,-0.96 525.57,34.95 657.44,-26.73l88.22 -56.64c20.63,-20.54 1.86,-10.95 26.98,-29.35 49.43,103 265.57,640.3 265.57,700.15 0,40.65 -2.97,69.3 -21.52,107.24 -12.38,25.32 -30.21,38.15 -52.22,52.4 -21.44,13.88 -43.73,26.13 -70.01,34.61 -80.23,25.9 -73.54,-7.69 -73.54,111.56 0,38.57 41.35,19.77 99.96,11.44 147.61,-20.96 274.56,-43.64 423.14,-43.64 109.14,0 386.39,56.33 563.34,56.33l0 -112.67c-78.46,-1.75 -161.87,-26.66 -222.02,-51.61 -58.11,-24.1 -125.41,-72.97 -168.57,-113.1 -80.92,-75.24 -116.85,-162.39 -156.66,-261.82l-920.88 -2322.34c-60.13,-150.31 -60.94,-144.21 -60.94,-301.21 0,-39.44 11.92,-103.29 24.14,-128.76 -228.47,0 -206.81,48.28 -354.1,48.28l-386.29 -56.33 0 120.71z"/>
   <path class="fil1" d="M24791.67 19998.5c15.26,-12.57 32.53,-26.78 53.52,-43.68 147.96,-119.11 287.69,-312.44 371.17,-479.29 105.39,-210.65 157.94,-476.02 156.76,-741.93 1.19,-265.92 -51.37,-531.28 -156.76,-741.93 -83.48,-166.85 -223.21,-360.17 -371.17,-479.29 -20.99,-16.91 -38.26,-31.11 -53.52,-43.68l-2.29 0c-49.19,-38.66 -104.44,-76.13 -173.12,-117.43 -96.42,-57.99 -209.4,-109.43 -330.48,-151.46 -328.61,-110.03 -604.69,-133.85 -1008.54,0 -121.08,42.04 -234.06,93.48 -330.48,151.46 -68.68,41.3 -123.93,78.77 -173.12,117.43l-2.29 0c-15.26,12.57 -32.53,26.78 -53.52,43.68 -147.96,119.12 -287.69,312.44 -371.17,479.29 -105.39,210.65 -157.94,476.01 -156.76,741.93 -1.19,265.92 51.37,531.28 156.76,741.93 83.48,166.85 223.21,360.17 371.17,479.29 20.99,16.9 38.26,31.11 53.52,43.68l2.28 0c49.19,38.66 104.45,76.13 173.13,117.43 96.42,57.98 209.4,109.42 330.48,151.46 403.85,133.85 679.93,110.04 1008.54,0 121.08,-42.04 234.06,-93.48 330.48,-151.46 68.68,-41.3 123.93,-78.77 173.13,-117.43l2.28 0zm-1658.22 0l1.89 0c-16.51,-12.13 -32.65,-24.61 -48.44,-37.42 -18.85,-15.92 -37.59,-32.67 -56.46,-50.33 -9.43,-8.83 -16.83,-14.43 -25.5,-23.09l-106.69 -120.1c-141.81,-181.65 -229.13,-394.02 -274.19,-618.46 -0.79,-4.47 -1.57,-8.95 -2.33,-13.44 -22.09,-131.67 -34.8,-266.7 -35.73,-401.47l0 -1.18c0.93,-134.76 13.65,-269.8 35.73,-401.47 0.76,-4.5 1.54,-8.98 2.33,-13.46 45.06,-224.43 132.37,-436.8 274.19,-618.44l106.69 -120.1c8.67,-8.67 16.08,-14.27 25.5,-23.09 18.86,-17.66 37.6,-34.41 56.45,-50.32 15.8,-12.81 31.94,-25.3 48.45,-37.43l-1.89 0c84.4,-64.37 174.02,-113.68 286.82,-154.2 297.38,-69.06 453.57,-81.52 722.48,0 112.8,40.52 202.42,89.83 286.82,154.2l-1.89 0c16.51,12.13 32.65,24.61 48.45,37.43 18.84,15.92 37.59,32.66 56.45,50.32 9.43,8.83 16.83,14.43 25.5,23.09l106.69 120.1c141.81,181.65 229.13,394.02 274.18,618.44 0.79,4.48 1.58,8.96 2.33,13.46 22.09,131.67 34.8,266.7 35.74,401.47l0 1.18c-0.94,134.77 -13.65,269.8 -35.74,401.47 -0.75,4.49 -1.54,8.97 -2.33,13.44 -45.05,224.44 -132.37,436.81 -274.19,618.46l-106.69 120.1c-8.67,8.67 -16.07,14.27 -25.5,23.09 -18.86,17.66 -37.61,34.41 -56.46,50.33 -15.79,12.81 -31.93,25.29 -48.44,37.42l1.89 0c-84.4,64.37 -174.02,113.69 -286.82,154.2 -268.91,81.52 -425.1,69.07 -722.48,0 -112.8,-40.51 -202.42,-89.83 -286.82,-154.2z"/>
  </g>
  <g id="_1209181368736">
   <path class="fil1" d="M19126.19 23728.93l0 -588.52 319.85 0c107.89,0 227.11,24.48 307.99,85.43 34.29,25.84 22.96,17.09 52.65,46.5 100.76,99.83 104.95,394.59 -12.74,513.43 -92.31,93.21 -227,122.28 -363.89,122.28 -50.67,0 -116.73,6.36 -154.33,-2.39 -76.47,-17.8 -149.53,-96.65 -149.53,-176.72zm-3.2 -642.89l0 -284.67c-0.02,-27.91 3.37,-45.9 3.28,-70.29 -0.24,-57.98 -4,-89.99 14.02,-133.11 25.68,-61.42 92.04,-119.65 177.81,-119.65 76.24,0 133.06,-3.13 205.95,21.15 60.49,20.15 71.11,28.95 112.09,60.62 46.63,36.04 94.56,129.22 94.56,196.5 0,79.36 0.31,158.31 -58.34,216.73 -59.14,58.91 -146.67,84.88 -231.28,98.16 -33.78,5.3 -69.7,6.14 -101.47,10.48 -27.42,3.75 -78.01,0.98 -107.88,0.87 -22.19,-0.08 -33.2,2.78 -51.06,3.31 -18.74,0.56 -38.78,-0.1 -57.68,-0.1zm-316.65 -620.51c0,13.72 13.99,6.3 28.75,6.22 101.48,-0.55 124.78,96.42 124.78,188.89 0,138.83 5.71,1074.59 -4.93,1133.73 -11.65,64.77 -47.25,120.07 -119.81,120.07 -16.07,0 -14.32,-2.88 -28.79,-3.2l0 54.37c86.66,0 132.48,-5.15 212.02,-18.28 54.37,-8.98 65.67,-8.35 128.41,0.9 159.5,23.52 396.72,29.23 548.11,-8.86 66.45,-16.71 135.95,-38.13 186.81,-72.27 53.38,-35.83 93.64,-75.85 125.19,-133.89 17.76,-32.69 28.08,-54.15 38.41,-92.73 25.74,-96.17 16.26,-199.07 -19.82,-289.49 -9.42,-23.61 -22.72,-47.22 -35.65,-66.7 -11.14,-16.79 -32.42,-45.75 -47.96,-57.59 -23.95,-18.25 -25.83,-23.5 -57.62,-44.73 -53.22,-35.56 -173.31,-83.16 -230.29,-83.16l0 -3.2c64.73,0 114,-31.83 159.93,-67.16l42.93 -46.63c22.09,-32.1 33.87,-52.08 45.33,-92.2 25.37,-88.85 3.72,-214.44 -51.73,-294.32 -6.77,-9.76 -12.61,-15.32 -20.05,-24.73 -13.87,-17.54 -58.09,-47.28 -78.25,-59.28 -19.82,-11.8 -39.49,-24.08 -60.22,-32.54 -57.25,-23.37 -75.83,-31.29 -140.26,-42.06 -105.27,-17.58 -245,-23.25 -352.86,-7.35 -21.49,3.17 -37.28,5.47 -58.34,8.82 -84.97,13.53 -98.08,0.93 -177.35,-7.83 -63.69,-7.05 -90.25,-9.59 -156.73,-9.59l0 44.78z"/>
   <path class="fil1" d="M20606.31 23492.77l-192.36 0 0 -829.8c0,-50.96 11.63,-91.8 30.28,-124.37 12.96,-22.65 18,-25.07 40.62,-38.59 48.65,-29.07 60.02,-21.87 125.23,-21.87 120.64,0 256.18,59.93 325.57,145.91 35.42,43.9 65.05,93.18 83.15,154.47 57.17,193.57 34.12,512.88 -140.11,628.29 -76.01,50.35 -170.54,85.94 -272.38,85.94zm-531.82 -1025.93c0,21.11 19.01,3.05 62.65,20.33 20.52,8.13 38.71,19.81 53.39,33.35 27.52,25.39 53.69,64.38 53.69,116.04l0 1108.91c0,79.7 -22.4,128.23 -85.36,159.8 -10.97,5.5 -18.12,8.87 -31.83,9.67 -32.51,1.9 -29.91,-9.21 -29.91,41.75 0,13.87 8.05,11.31 26.4,11.31 117.86,0 146.01,-37.61 223.54,-23.69 72.02,12.94 154.23,23.69 236.62,23.69l0 -52.8c-101.35,0 -169.73,-75.9 -169.73,-169.73l0 -196.13 188.59 0c22.12,0 77.13,25.37 92.69,35.55 48.17,31.52 104.41,102.83 136.12,154.31 18.46,29.97 83.04,98.36 109.48,120.59 78.89,66.33 79.4,65.88 168.5,95.53 54.66,18.19 199.88,12.69 266.43,12.69l0 -56.57c-99.41,0 -198.53,-36.96 -257.61,-108.26l-109.2 -124.64c-74.39,-78.12 -83.6,-105.16 -192.14,-143.55l-8.04 -3.28c-0.57,-0.24 -1.76,-0.7 -2.56,-1.21 99.47,-23.17 188.74,-67.37 259.39,-136.65 80.23,-78.67 159.28,-211.18 159.28,-357.46 0,-116.83 -4.43,-187.4 -46.82,-288.86 -55.98,-134.01 -150.32,-231.76 -290.24,-279.3 -146.17,-49.66 -219.33,-42.86 -372.04,-42.86 -113.37,0 -93.93,41.49 -230.08,18.86 -75.25,-12.51 -131.34,-18.86 -211.22,-18.86l0 41.49z"/>
   <path class="fil1" d="M17527.88 23547.31zm0 0zm0 0l85.63 -231.2c15.26,-39.09 27.97,-75.69 43.67,-114.74 44.96,-111.8 86.19,-231.85 130.92,-344.33l86.79 -230.04 9.3 17.1c40.41,99.33 80.2,219.04 121.09,320.21 11.71,28.98 21.84,55.97 32.24,84.69 10.22,28.22 21.33,54.64 32.1,84.83l95.56 255.22c9.75,43.55 4.35,64.74 -29.4,79.68 -64.94,28.75 -185.68,10.38 -272.2,10.7 -72.12,0.27 -61.96,-11.88 -166.63,3.07 -35.21,5.03 -65.57,10.71 -94.75,22.18 -14.95,5.88 -25.66,9.75 -38.82,17.75 -13.93,8.47 -23.58,16.92 -35.47,24.88zm158.41 -1071.19c34.38,0 85.1,26.11 112.13,46.28 11.72,8.75 21.15,18.66 31.2,25.38l-68.36 184.35c-4.94,14.88 -10.91,30.57 -17.3,46.82 -6.49,16.54 -10.76,30.32 -17.29,46.83 -6.34,16.03 -11.89,32.73 -17.19,46.94l-257.05 700.98c-6.03,15.12 -10.94,30.42 -17.25,46.87 -16.51,43.02 -34.25,102.32 -53.07,139.3 -28.63,56.25 -75.4,97.44 -132.04,124.45 -36.31,17.31 -57.92,19.19 -99.39,28.85l0 52.81c14.42,-0.32 32.73,-5.09 45.89,-6.92l145.44 -20.69c54.43,-7.37 161.98,25.31 189.62,27.61l0 -56.58c-42.33,-3.52 -94.3,-48.23 -94.3,-90.52 0,-58.66 24.15,-127.09 58.7,-171.38 30.11,-38.59 88.11,-79.49 137.86,-95.99 28.38,-9.41 60.67,-19.01 97.48,-19.44 42.55,-0.5 75.13,4.14 113.28,3.94 87.05,-0.45 246.33,16.38 308.13,-12.53l41.35 -26.54c9.67,-9.63 0.87,-5.13 12.65,-13.76 23.17,48.28 124.47,300.1 124.47,328.15 0,19.06 -1.39,32.48 -10.08,50.26 -5.8,11.87 -14.16,17.88 -24.48,24.56 -10.04,6.51 -20.5,12.25 -32.81,16.22 -37.6,12.13 -34.46,-3.61 -34.46,52.28 0,18.07 19.38,9.26 46.85,5.37 69.18,-9.83 128.68,-20.46 198.31,-20.46 51.15,0 181.09,26.41 264.02,26.41l0 -52.81c-36.77,-0.82 -75.86,-12.5 -104.05,-24.19 -27.24,-11.3 -58.78,-34.2 -79.01,-53.01 -37.93,-35.26 -54.77,-76.11 -73.42,-122.71l-431.6 -1088.43c-28.18,-70.45 -28.56,-67.59 -28.56,-141.17 0,-18.49 5.59,-48.41 11.31,-60.35 -107.08,0 -96.93,22.63 -165.96,22.63l-181.05 -26.4 0 56.57z"/>
   <path class="fil1" d="M21798.67 22658.52c0,-50.96 7.55,-84.33 26.2,-116.89 34.34,-72.85 38.21,-74.14 69.98,-120.7 -107.09,1.35 -90.59,41.07 -224.42,18.82 -75.25,-12.51 -131.34,-18.86 -211.22,-18.86l0 41.49c0,21.11 19,3.05 62.65,20.33 20.52,8.13 38.71,19.81 53.39,33.35 27.52,25.39 53.69,64.38 53.69,116.04l0 1108.91c0,79.7 -22.39,128.23 -85.36,159.8 -10.97,5.5 -18.12,8.86 -31.83,9.66 -32.51,1.9 -29.91,-9.21 -29.91,41.75 0,13.87 8.05,11.32 26.4,11.32 117.86,0 146,-37.62 223.54,-23.69 72.02,12.94 154.23,23.69 236.62,23.69l0 -52.81c-101.35,0 -169.73,-75.9 -169.73,-169.73 0,-360.48 0,465.96 0,-1082.51z"/>
   <path class="fil1" d="M16671.38 22759.29l0 982.76c0,79.7 -21.82,127.22 -84.79,158.79 -10.97,5.5 -18.12,8.86 -31.83,9.66 -32.51,1.9 -29.91,-9.21 -29.91,41.75 0,13.87 8.05,11.32 26.4,11.32 117.86,0 146,-37.62 223.54,-23.69 72.02,12.94 154.23,23.69 236.62,23.69l0 -52.81c-101.35,0 -169.73,-75.9 -169.73,-169.73l0 -985.81c0,-57.24 31.07,-171.61 63.81,-171.35l189.56 0 53.33 0c69.7,0 137.86,141.06 149.4,202.51 17.28,43.64 -0.78,62.65 20.33,62.65l41.49 0c0,-79.88 -6.35,-135.97 -18.86,-211.22 -22.25,-133.84 17.46,-117.33 18.82,-224.43 -46.55,31.77 -47.85,35.64 -120.69,69.98 -32.56,18.65 -65.93,26.2 -116.89,26.2l-26.93 0 -695.16 0 -26.93 0c-50.96,0 -84.33,-7.55 -116.89,-26.2 -72.85,-34.35 -74.14,-38.22 -120.7,-69.98 1.36,107.09 41.07,90.59 18.82,224.43 -12.51,75.24 -18.86,131.33 -18.86,211.22l41.49 0c21.11,0 3.05,-19 20.33,-62.65 12.07,-76.31 76.63,-204.8 149.4,-202.51l53.33 0 194.31 0.72c60.2,-0.67 77.63,111.25 77.19,174.7z"/>
   <path class="fil1" d="M22944.12 22592.35l-836.02 1317.07c-25.28,0.51 -39.72,-1.48 -38.8,15.5l-0.6 38.13c129.9,0 102.26,-21.08 183.56,-21.08 106.23,19.2 199.92,22.06 303.44,21.4l349.06 -2.22c119.24,0 191.07,-41.35 215.5,-44.75 25.51,-3.55 39.36,-8.14 50.79,19.85 11.5,28.17 -6.85,24.9 58.08,24.9 0,-86.2 -44.16,-102.74 -28.76,-160.67 12.14,-45.69 28.76,-117.7 28.76,-171.24l-56.57 0c0,146.15 -142.47,275.34 -252.71,275.34l-347 0c-30.97,0 -142.46,-10.57 -173.56,-17.82 -82.39,-17.4 -70.07,-53.76 -43.59,-97.89l836.02 -1317.08c25.28,-0.51 39.72,1.48 38.8,-15.5l0.6 -38.13c-129.9,0 -102.26,21.08 -183.56,21.08 -106.23,-19.2 -199.92,-22.06 -303.44,-21.4l-349.06 2.22c-119.24,0 -191.07,41.35 -215.5,44.75 -25.5,3.55 -39.36,8.14 -50.79,-19.85 -11.5,-28.17 6.84,-24.9 -58.08,-24.9 0,86.2 44.16,102.74 28.76,160.68 -12.14,45.69 -28.76,117.7 -28.76,171.24l56.57 0c0,-146.16 142.47,-275.34 252.71,-275.34l347 0c30.97,0 142.46,10.57 173.56,17.82 82.39,17.4 70.07,53.76 43.59,97.89z"/>
  </g>
  <rect class="fil1" x="24646.4" y="23159.66" width="6585.53" height="62.86"/>
  <rect class="fil1" x="8130.24" y="23159.66" width="6585.53" height="62.86"/>
  <g id="_1209181346992">
   <path class="fil1" d="M27194.83 12123.37l0.04 -0.26c29.66,-190.67 7.71,-444.93 37.45,-640.78 4.43,-29.2 361.75,-164.54 408.7,-185.99 352.14,-160.92 231.61,-63.72 348.65,-305.88 17.1,-35.41 44.21,-80.81 73.81,-106.48 54.96,233.5 174.82,118.93 214.2,107.96 27.03,-7.51 101.25,-2.73 134.8,-7.57 99.1,-260.61 82.93,-275.93 -32.9,-446.05 -29.51,-43.34 -51.22,-77.1 -81.71,-122.76 -56.05,-83.91 -292.74,-410.93 -326.4,-497.84 36.08,16.88 70.19,53.09 99.45,80.46l43.04 35.3c-17.02,-168.39 -129.54,-288.72 -256.15,-374.52l-24.9 -18.55c17.28,-58.22 79.88,-180.28 72.86,-231.98 -36.02,2.88 -35.84,15.33 -57.19,40.17l-57.77 52.01 25.11 -135.46c-78.5,13.7 -144.57,150.57 -249.65,189.89 3.16,32.97 46.65,125.2 7.34,140.96 -34.15,6.5 -32.15,-13.23 -46.11,-53.72 -11.71,-33.98 -12.52,-45.12 -39.16,-71 -94.2,-24.54 -370.19,86.67 -450.6,119.45 -390.01,159.02 -693.61,482.56 -881.56,856.79 -65.54,130.5 -117.34,258.41 -173.2,398.83 -7.83,19.68 -16.24,38.5 -25.2,56.55l0.07 -0.11c503.72,650.16 932.97,1078.61 1231.7,1153 1.85,-10.95 3.6,-21.75 5.26,-32.42l0.01 0zm-1317.04 -995.69c-57.73,70.81 -127.07,124.43 -204.15,165.98 3.33,2.54 5.23,5.83 5.29,10l30.52 653.41 761.69 -146.28c-191.96,-215.26 -386.39,-464.17 -593.76,-682.48l0.4 -0.62zm-442.01 256.15c-149.55,39.14 -310.77,57.41 -464.93,79.43 -465.63,-16.13 -1087.2,-214.17 -1607.78,126.8 -136.76,112.17 -101.62,87.71 -230.88,115.12 -276.84,-124.62 -1020.04,278.94 -1058.77,726.79 91.16,-82.24 127.62,-225.34 246.74,-285.49 -25.25,91.82 -73.32,156.49 -97.7,271.78 -6.78,32.06 -14.74,113.69 -23.56,213.03l506.86 -97.35c57.19,-286.04 153.68,-540.25 384.66,-618.52 -176.87,192.44 -225.25,397.09 -227.11,588.26l2583.8 -496.24 -11.52 -617.75c-0.16,-1.96 -0.09,-3.92 0.19,-5.88zm-3257.85 1485.26c-14.2,154.69 -29.66,297.26 -45.43,334.5 -32.21,76.01 -88.52,170.81 -132.27,232.68 -44.05,62.28 -125.61,155.84 -157.08,219.71 512.46,-48.3 555.91,-341.25 656.75,-479.73 1.46,138.13 -49.87,255.09 -88,365.27 171.34,-86.22 203.19,-422.79 253.95,-769.72l-487.91 97.29zm700.78 -139.74c28.64,223.48 78.57,408.22 -18.13,501.41 -369.2,359.14 -278.92,118.36 -374.22,653.83 -67.23,377.78 -106.82,497.5 -189.34,843.02 -54.19,226.89 76.58,148.43 100.24,307.5 10.13,68.09 48.59,91.46 90.65,91.7 84.03,0.5 213.56,2.57 297.81,3.76 60.75,0.85 28.47,-65.65 16.83,-82.88 -140.44,-207.79 -82.69,-94.5 -253.02,-202.46 -17.39,-146.74 90.66,-599.79 134.73,-750.1 39.29,-133.99 106.35,-167.78 183.37,-247.92 38.6,-40.17 62.46,-75.74 101.28,-115.6 135.17,-138.77 437,-235.03 623.7,-443.13 90.61,-101 294.29,-346.85 389.46,-621.91 459.4,326.14 1162.62,395.04 1753.81,372.2 -62.89,-40.14 -165.74,-110.32 -337.02,-363.65 89.14,102.24 194.6,190.5 313.93,259.81 -60.11,-185.46 -96.87,-373.04 -128.35,-561.1 -81.74,-12.37 -119.59,-95.64 -130.56,-157.96l-2575.16 513.49zm2904.41 243.41c105.29,52.28 220.13,90.35 343.07,111.18 247.79,41.98 483.72,59.08 735.17,76.74 246.94,17.35 501.93,59.31 748.44,79.2 -10.46,168.55 7.24,294.11 -42.91,452.72 -39.22,124.04 -93.92,233.32 -118,372.18 -177.48,6.87 -211.91,-142.93 -339.86,76.94 -25.64,44.05 -54.74,102.33 -81.37,164.02 -93.67,217.01 47.54,187.39 106.63,173.39 91.86,-21.77 158.11,-56.06 233.22,-106.24 57.79,-39.67 308.07,-195.6 336.24,-233.17 41.95,-55.94 76.16,-356.27 98.78,-455.72 33.42,-146.93 130.87,-326.7 107.48,-466.47 -27.28,-163.04 -163.59,-192.51 -311.2,-249.02 -137.98,-52.83 -262.37,-106.21 -402.17,-167.83 -298.46,-131.57 -541.13,-298.78 -818.37,-51.5 260.96,-397.8 567.67,-92.07 689.43,-67.99 36.96,-137.6 66.02,-253.41 88.39,-355.04 -180.49,-42.09 -353,-172.69 -525.16,-345l-912.02 181.86c3.07,91.31 4.57,195.38 -89.28,210.51 35.39,204.78 80.81,406.36 153.48,599.25zm1628.66 -2494.05c-33.03,-70.42 -57.93,-125.02 -49.35,-215.1 5.52,-58.16 34.71,-142.02 77.14,-186.11 -19.24,110.1 -120.08,389.5 124.79,509.8 142.14,69.84 134.33,-17.04 425.17,279.91 -55.59,156.37 -350.26,266.42 -491,324.16 -402.51,171.44 -221.33,116.17 -223.12,2.98 14.72,-129.18 -3.76,-276.44 12.31,-416.93 22.87,-200.2 64.44,-195.38 124.06,-298.72zm585.39 69.29c-21.08,-25.67 -35.77,-29.84 -58.02,-59.8 -97.5,-131.28 -291.5,-401.88 -308.49,-548.96 67.02,-24.55 66.55,18.64 124.69,139.38 26.18,54.37 54.08,103.2 81.44,153.7 44.09,81.4 129.58,231.86 160.37,315.69zm-422.78 -802.76c71.75,-51.71 130.19,65.88 62.39,105.7 -34.07,20.01 -68.93,7.21 -84.44,-18.75 -25.17,-42.08 -5.93,-66.76 22.06,-86.94zm-1252.62 1073.35c-24.96,-404.12 345.03,-887.94 695.51,-1013.34 -127.8,121.51 -220.83,207.62 -312.94,359.62 -29.37,48.48 -204.86,400.03 -216.51,441.1l36.57 -225.97c-137.73,177.55 -157.08,362.6 -202.64,438.59z"/>
   <g>
    <path class="fil1" d="M18776.73 14256.37l66.05 332.72c8.36,37.83 67.74,320.79 63.8,335.22 -139.02,14.37 -128.94,12.3 -264.6,-0.52 4.68,-51.24 20.87,-118.07 31.98,-168.81l67.81 -331.65c11.35,-51.92 20.63,-118.61 34.96,-166.96zm174.54 99.49c6.97,3.5 3.62,-3.09 11.35,13.43l-11.35 -13.43zm35.03 550.47c-3,3.27 4.42,2.41 -8.8,4.56l-4.06 -9.12 -112.74 -600.54c13.24,11.07 13.63,13.98 24.39,28.4 8.24,11.04 13.91,18.57 22.8,30.72 15.98,21.84 30.67,39.72 47.41,62.72 30.51,41.9 61.11,82.02 92.71,124.46 11.08,14.89 170.59,239.94 177.57,256.17 -32.34,25.23 -189.93,100.71 -239.29,102.65zm-408.51 3.54c-39.72,-5.54 -100.28,-28.66 -135.33,-43.31 -18.33,-7.66 -101.5,-45.3 -117.3,-62.88l365.14 -503.87c-1.99,36.64 -110.44,606.83 -112.51,610.06zm487.62 -650.61c13.14,4.32 -4.08,-4.69 4.65,1.78 3.71,2.75 2.91,2.25 5.4,5.15 -19.54,-4.13 -6.68,-1.18 -10.04,-6.93zm0 0c-12.49,-2.59 -7.4,-3.08 -9.83,-6.49 16.26,4.06 7.32,2.8 9.83,6.49zm-120.26 -12.7c31.67,9.67 412.2,251.79 462.08,284.84 21.33,14.13 44.41,30.71 64.72,41.46 -19.73,44.04 -155.99,180.28 -192.74,192.71 -35.98,-60.39 -124.83,-187.2 -169.24,-254.81 -21.37,-32.54 -150.85,-230.67 -164.82,-264.2zm-672.65 522.34c-13.26,-6.74 -41.47,-30.69 -53.37,-40.9 -35.7,-30.61 -123.39,-113.74 -138.59,-150.91 9.54,-10.32 47.89,-33.48 63.39,-43.58 66.13,-43.12 410.39,-272.09 462.35,-287.84 -4.14,12.9 -68.04,115.69 -80.06,135.07 -54.61,88.02 -108.55,177.1 -167.07,260.92 -16.97,24.31 -74.83,115.83 -86.64,127.24zm348.78 -439.65c-5,15 -7.51,13.77 -17.54,23.31 2.16,-10 6.61,-18.05 14.69,-23.69l52.5 -80.27c6.3,-9.94 11.55,-23.22 21.52,-22.26 4.61,11.82 -16.61,32.19 -31.46,53.17 -9.3,13.13 -29.42,40.37 -39.72,49.74zm329.99 26.61c-16.44,-13.67 -58.84,-72.59 -75.91,-95.2 -6.82,-9.03 -23.33,-24.64 -17.46,-35.78 10.56,2.98 14.56,14.15 25.76,30.67 8,11.81 13.9,21.59 22.78,33.93 8.76,12.18 41.85,56.32 44.83,66.38zm104.31 -103.09c-30.04,-16.57 -71.17,-47.36 -101.89,-67.25 -24.6,-15.93 -29.12,-13.72 -26.2,-29.96 15.98,3 50.17,36.41 65.01,47.78l63.08 49.44zm-561.77 2.3c19.35,-13.91 39.49,-35.68 60.75,-50.5 16.09,-11.21 51.73,-43.88 66.22,-48.07l3.59 5.19c-5.41,10.81 -17.59,15.61 -31.07,25.02l-66.84 46.39c-10.23,7.08 -22.19,16.99 -32.65,21.97zm-451.54 268.04c-33.81,-59.32 -90.39,-174.82 -103.45,-254.45l613.15 -112.69c-10.39,26.76 -367.04,269.79 -443.67,323.04 -15.8,10.98 -50.84,37.58 -66.02,44.1zm954.24 -368.23l616.07 113.69c-9.59,60.31 -53.13,166.75 -85.38,222.51 -6.96,12.04 -8.76,18.67 -17.79,27.2 -17.7,-7.89 -246.54,-159.93 -265.61,-172.83 -46.17,-31.24 -83.77,-60.2 -125.86,-91.31 -21.15,-15.62 -110.72,-83.87 -121.43,-99.27zm-236.19 -217.98c79.69,-12.31 140.94,50.37 150.83,118.13 11.92,81.7 -48.53,146.56 -118.09,154.97 -81.22,9.82 -143.61,-48.05 -152.33,-117.73 -10.8,-86.29 47.09,-144.17 119.59,-155.37zm866.2 7.65c19.28,64.8 6.7,192.88 -1.43,261.41 -19.19,0.81 -287.7,-58.25 -332.37,-67.03 -55.66,-10.94 -112.19,-21.93 -167.86,-33.15 -49.59,-9.99 -125.41,-17.82 -168.75,-33.03l336.22 -64.93c55.77,-11.3 112.15,-22.7 167.77,-33.71 27.31,-5.41 151.16,-36.64 166.42,-29.57zm-1701.4 259.52c-6.76,-51.12 -19.61,-220.49 1.16,-260.23 28.95,0.97 664.65,124.81 674.04,129.28 -55.19,13.03 -113.27,20.78 -169.63,32.61 -71.47,15 -492.79,100.81 -505.57,98.35zm1108.7 -290.55l-5.77 6.08c-2.32,2 -4.78,3.61 -7.17,5.41l-65.24 51.26c-4.93,3.85 -7.24,5.85 -12.52,9.56 -15.06,10.58 -13.77,4.07 -14.04,4.01 -2.13,-13.29 37.61,-33.81 49.24,-41.38 11.93,-7.76 45,-31.73 55.5,-34.94zm0 0c3.42,-6.12 -0.79,-0.65 4.2,-6.06l32.1 -20.7c-7.2,10.7 -26.22,23.48 -36.3,26.76zm-529.51 -13.98c19.93,15.65 41.65,28.31 62.26,43.54 27.66,20.44 56.5,30.39 54.46,48.26 -8.57,-1.96 -107.57,-77.26 -117.57,-87.46 -17.35,-6.59 -18.74,-14.34 -34.77,-27.83l32.33 19.59c0.42,0.36 1.39,2.46 1.68,1.89 0.3,-0.58 1.09,1.33 1.61,2.01zm-566.23 -20.77c12.45,-82.43 68.35,-195.73 104.31,-254.57 14.04,5.61 22.75,13.83 34.67,21.68 142.11,93.51 315.31,213.87 446.74,318.06 10.09,8 18.54,16.29 27.55,24.08l-613.27 -109.24zm1064.72 109.17c82.67,-77.02 275.14,-202.89 375.74,-274.92l127.71 -86.74 6.48 6.54c32.49,40.34 93.05,193.82 100.02,242.9 -16.28,5.01 -586.7,112.13 -609.95,112.23zm-61.21 -183.82l-57.56 94.15c-19.51,31.12 -12.8,25.84 -25.14,23.15 0.08,-9.44 2.36,-9.91 8.37,-17.79 17.06,-22.37 62.31,-89.23 74.33,-99.52zm-254.12 120.27c-13.22,-10.19 -48.82,-75.95 -66.9,-101.39 -6.32,-8.9 -15.37,-21.87 -19.67,-32.27l76 101.99c14.2,21.59 22.35,23.18 10.56,31.67zm254.12 -120.27c4.18,-11.53 10.15,-17.4 17.65,-23.72l-10.47 18.93c-1.01,1.09 -3.49,4.92 -4.45,3.31 -0.41,-0.69 -1.81,1.01 -2.73,1.48zm1.04 100.41c9.05,-22.26 27.2,-49.83 40.26,-71.06 32.16,-52.3 268.35,-422.71 296.76,-455.4 19.39,6.05 90.41,72.37 104.94,87.06 20.15,20.37 72.56,76.06 85.78,103.89 -52.36,36.57 -483.56,315.65 -527.73,335.51zm-864.56 -334.63c20.69,-41.45 160.57,-178.25 194.7,-191.51 27.41,38.61 58.8,84.46 86.46,126.99 30.13,46.32 230.96,352.51 246.4,394.65 -39.8,-15.67 -229.1,-137.14 -268.76,-161.47 -87.72,-53.83 -173.44,-114.03 -258.81,-168.66zm246.69 -226.43c3.1,-3.2 2.37,-2.85 7.24,-6.49l21.86 -12.85c54.74,-29.55 164.58,-83.78 220.78,-87.98 5.71,10.02 114.98,574.63 116.23,610.32 -20.76,-17.3 -290.95,-393.43 -322.13,-438.72 -13.98,-20.31 -32.2,-42.26 -43.98,-64.27zm538.62 498.99c4.61,-51.35 42.15,-242.26 53.54,-307.36 17.31,-98.91 43.14,-201.41 57.43,-299.78 38.13,3.34 105.26,29.27 137.05,43.5 50.22,22.48 96.13,52.56 115.02,60.89 -6.38,13.65 -14.57,22.66 -22.7,34.82 -45.71,68.33 -316.15,452.49 -340.33,467.93zm-85.39 51.26c-7.7,-18.53 -34.91,-184.63 -45.37,-230.11 -17.42,-75.74 -31.29,-152.38 -48.02,-228.42l-41.09 -202.13c-2,-13.69 -1.94,-13.04 12.66,-15.25 92.15,-13.94 163.53,-6.52 253.55,2.08 -7.2,54.26 -22.7,115.78 -33.97,169.65 -30.74,146.91 -80.02,368.28 -97.77,504.18zm-76.81 -730.65c-186.04,13.62 -353.41,87.6 -488.42,193.1 -23.27,18.19 -40.76,34.42 -60.98,52.31 -23.32,20.64 -36.43,37.39 -57.14,59.32 -134.77,142.74 -253.7,403.84 -226.95,684.11 12.29,128.73 49.83,251.31 103.3,349.03 80.22,146.61 188.72,264.21 331.45,351.48 46.06,28.17 99.05,55.44 154.5,75.24 397.36,141.82 805.87,11 1049.85,-312.22 129.15,-171.1 198.35,-397.72 177.83,-620.05 -44.02,-476.98 -454.92,-871 -983.44,-832.32z"/>
    <path class="fil1" d="M18714.84 13138.5c283.63,-22.78 546.41,106.03 687.37,242.89 42.07,40.85 74.38,73.06 113.07,123.02 322.15,416.04 230.38,1004.98 -170.76,1307.48 -262.74,198.13 -593.66,256.14 -907.71,132.74 -56.29,-22.12 -111.16,-49.39 -156.85,-79.14 -65.79,-42.83 -108.35,-74.69 -162.89,-129.82 -73.57,-74.37 -122.07,-137.61 -172.56,-236.61 -145.37,-285.11 -137.69,-652.39 39.43,-921.67 16.76,-25.48 30.2,-44.71 47.73,-68.73l53.15 -63.28c125.36,-144 343.21,-283.84 630.01,-306.87zm1101.78 988.58c10.18,-161.31 -20.84,-311.59 -73.9,-444.16 -71.52,-178.7 -189.18,-325.26 -338.24,-442.19 -45.04,-35.33 -104.41,-71.72 -161.17,-100.09 -337.76,-168.81 -713.32,-139.85 -1030.69,54.83 -95.89,58.82 -206.39,159.78 -270.12,249.15 -37.17,52.12 -68.13,98.02 -99.77,161.45 -133.37,267.43 -144.33,580.04 -34.09,858.96 52.19,132.02 115.1,216.13 203.17,316.12 273.3,310.3 764.92,424.61 1154.07,258.05 124.75,-53.39 186.2,-92.27 283.98,-172.29 99.19,-81.17 189.11,-191.36 258.52,-326.9 63.31,-123.63 98.2,-253.74 108.25,-412.93z"/>
    <path class="fil1" d="M18866.21 14086.16c-17.13,115.85 -197.11,98.76 -180.43,-27.09 6.16,-46.48 51.57,-83.13 105.23,-75.57 43.93,6.19 83.08,49.33 75.2,102.66zm27.81 12.59c18.63,-73.06 -37.76,-132.86 -93.22,-144.37 -74.38,-15.44 -129.3,35.36 -142.4,92.54 -35.27,153.87 194.14,214.47 235.62,51.83z"/>
   </g>
   <path class="fil1" d="M17481.4 13340.69l-612.66 208.37c179.99,1.94 607.8,15.12 612.66,-208.37zm-157.64 -3179.95l-1053.65 0c-43.07,0.04 -64.86,10.3 -64.24,56.81l0 1263.81c1.69,55.64 -2.48,62.76 60.65,62.71 735.7,0.95 955.99,-330.91 1050.36,-677.28 71.04,-260.73 73.22,-530.85 76.21,-666.96 1.09,-48.56 -3.33,-39.11 -69.34,-39.1zm441.89 -229.89l-5353.88 0c-38.42,0 -69.85,31.44 -69.85,69.85l0 1531.76c315.83,137.79 623.24,305.46 832.46,531.35 41.43,9.15 83.5,17.55 126.19,25.2 268.8,48.17 562.41,66.73 879.45,57.3l0 -2110.74c0,-8.73 7.08,-15.81 15.81,-15.81 8.73,0 15.81,7.08 15.81,15.81l0 3599.72c0,8.73 -7.07,15.81 -15.81,15.81 -1.59,0 -3.11,-0.24 -4.56,-0.67 -112.34,-26.57 -218.85,-58.15 -319.62,-94.65 10.48,47.8 20.3,94.57 29.93,140.41 10.46,49.84 20.69,98.56 31.29,146.27 266.17,100.03 553.96,154.93 853.97,154.93l249.18 0 0 424.22 -473.74 0c-29.1,0 -52.7,23.59 -52.7,52.7 0,29.1 23.6,52.7 52.7,52.7l1027.8 0c29.1,0 52.7,-23.59 52.7,-52.7 0,-29.1 -23.59,-52.7 -52.7,-52.7l-448.67 0 0 -424.22 249.17 0c417.75,0 811.89,-106.22 1156.78,-292.96 -24.94,331.44 -165.06,557.51 -379.09,704.42 -262.38,180.1 -636.7,244.52 -1048.11,239.4 -271.52,-3.37 -472.74,-14.23 -626.98,-41.28 -148.82,-26.09 -251.81,-67.14 -331.38,-131.41 -18.09,-14.55 -44.57,-11.67 -59.12,6.42 -14.55,18.09 -11.67,44.57 6.42,59.12 91.25,73.7 206.13,120.21 369.58,148.87 158.02,27.71 363.51,38.82 640.49,42.26 427.48,5.31 818.46,-63.02 1096.53,-253.89 240.98,-165.4 396.46,-420.54 417.41,-795.8 0.46,-8.56 -1.66,-16.66 -5.69,-23.54l2.76 -1.66c298.98,2.09 672.6,-4.66 882.81,-80.7 51.43,-18.6 102.95,-43.92 166.13,-80.34 53.69,-30.96 109.2,-43.8 179.48,-41.92 17.51,-25.62 36.06,-50.45 55.58,-74.47 -86.32,-22.41 -186.36,-23.74 -319.4,14.79 17.74,-339.83 440.19,-439.35 730.74,-394.3 4.11,22.85 2.37,40.76 1.75,62.98 95.67,-42.55 198.45,-72.04 306.06,-86.17 -27.56,-81.91 -8.06,-136.85 92.44,-139.61l1319 -36.2c-19.28,195.8 -217.22,365.92 -512,458.63 61.78,56.55 117.13,119.99 164.94,189.06 347.35,-111.83 545.33,-371.48 624.95,-682.32 120.21,-44.94 249.45,-133.12 332.81,-226.18 42.28,-47.19 298.32,-292.31 320.72,-328.85 27.51,-44.85 -0.6,-80.92 -40.59,-49.87 -33.19,18.2 -300.39,249.87 -354.8,297.76 -110.52,97.25 -283.15,206.48 -394.46,206.69l-339.89 0.87 -347.22 -791.24c136.98,-3.5 243.93,-12.65 272.07,-173.17l0.12 -375.31 -745.47 0.06c-1.43,-233.98 55.96,-224.63 -171.71,-353.29 -60.07,-18.09 -112.94,-13.37 -159.21,8.53 -8.56,4.05 0,0 67.79,131.51 23.41,45.41 79.36,-40.52 129.12,13.33 126.45,101.05 6.13,137.19 -33.25,230.69 -63.42,150.52 6.05,139.82 79.34,204.14 143.31,125.77 29.98,415.26 -47.85,496.26 -128.94,134.18 -336.68,84.56 -549.5,89.52 -393.76,9.17 -495.02,515.63 -999.32,873.42 309.85,-409.7 494.17,-918.91 494.17,-1469.17l0 -1551.77c0,-38.41 -31.44,-69.85 -69.85,-69.85zm1851.08 2737.36l-1306.12 1.9c-50.2,-117.52 -13.48,-301.2 60.65,-389.39 899.68,51.75 1054.27,-244.02 1245.46,387.49zm-3877.82 -784.83c31.46,0 56.97,25.51 56.97,56.98 0,31.46 -25.51,56.97 -56.97,56.97 -25.99,0 -47.91,-17.41 -54.76,-41.19l-292.43 0c-8.73,0 -15.81,-7.08 -15.81,-15.81 0,-8.73 7.08,-15.81 15.81,-15.81l292.45 0c6.87,-23.76 28.78,-41.14 54.74,-41.14zm-3383.77 -77.23c26.87,257.65 94.22,503.73 195.48,731.74 76.59,22.11 150.39,50.78 220.78,85.34 -106.42,-206.3 -180.93,-439.65 -224.54,-699.23 -63.01,-42.91 -127.09,-81.91 -191.73,-117.85zm1162.39 1833.37c36.85,22.55 74.3,44.21 112.38,64.83l-15.7 -53.37c-24.8,-84.39 -48.54,-165.13 -72.84,-243.51 -34.98,-19.2 -69.05,-39.18 -102.21,-59.93 36.46,92.78 63.02,190.55 78.37,291.98zm-595.6 -2609.47c10.54,-10.94 19.93,-22.54 27.67,-34.91 12.11,-19.34 14.84,-36.43 24.81,-55.58 17.52,-33.64 21.29,-15.15 45.35,-33.16 7.76,-56.65 -12.16,-29.66 -35.51,-80.35 -21.17,-45.96 -23.99,-39.68 -21.09,-98.15 -90.77,-17.7 -122.14,-92.85 0.25,-113.55l31.37 -9.02c3.43,-39.96 -9.71,-76.67 -7.69,-137.32 74.63,-54.41 343.31,-32.73 415.17,9.29 8.17,77.31 -5.34,86.54 -13.11,156.28 43.63,9.13 68.24,-18.1 96.76,20.32 -1.02,34.04 -30.34,47.1 -65.69,58.44 -19.56,6.28 -38.45,14.55 -41.24,25.96 -5.42,22.24 32.3,56.37 33.24,97.55 -2.42,21.52 -31.89,3.81 -39.6,14.11 -5.74,7.67 -7.04,17.38 -2.97,25.3 0.22,0.44 8.79,4.33 8.87,19.18 0.03,5.22 -15.69,9.76 -13.89,16.25 23.46,47.07 20.46,67.67 -74.57,66.3l-10.36 35.96c15.45,26.28 72.55,53.19 88.54,76.31 63.08,91.2 133.67,76.33 163,130.78l77.1 216.42c23.55,41.13 36.87,69.57 46.59,91.85 78.92,10.38 165.59,15.89 261,15.77 63.15,0.05 58.97,-7.07 60.66,-62.71l0 -1263.81c0.63,-46.51 -21.16,-56.78 -64.24,-56.81l-1053.65 0c-66,-0 -70.43,-9.45 -69.33,39.1 2.99,136.11 5.18,406.22 76.21,666.96 15.04,55.22 33.31,110.06 56.33,163.25zm-278.13 -868.02c0.27,-8.69 7.54,-15.52 16.24,-15.25 8.69,0.27 15.52,7.54 15.26,16.24 -16.42,509.01 48.78,883.46 247.61,1130.42 198.33,246.33 531.3,367.19 1051.08,369.94 8.69,0.04 15.72,7.11 15.68,15.81 -0.03,8.69 -7.11,15.72 -15.81,15.69 -530.14,-2.81 -870.89,-127.5 -1075.54,-381.67 -204.14,-253.56 -271.18,-634.64 -254.52,-1151.17zm1790.89 1498.28c-8.73,0 -15.81,-7.08 -15.81,-15.81 0,-8.73 7.08,-15.81 15.81,-15.81l1331.09 0c8.73,0 15.81,7.08 15.81,15.81 0,8.73 -7.08,15.81 -15.81,15.81l-1331.09 0zm-128.97 494.02l1589.02 0 0 -2030.94c0,-14.89 -6.07,-28.39 -15.83,-38.16l-0.06 -0.06c-9.76,-9.76 -23.28,-15.83 -38.16,-15.83l-1480.93 0c-14.89,0 -28.39,6.07 -38.16,15.83l-0.06 0.06c-9.76,9.76 -15.83,23.27 -15.83,38.16l0 2030.94zm1620.64 1448.49c0,86.46 -232.32,143.89 -523.48,167.94 -106.13,8.76 -220.8,13.45 -335.04,13.77 -114.17,0.33 -227.16,-3.71 -329.96,-12.37 -262.72,-22.14 -463.78,-76.7 -463.78,-169.34 0,-1159.81 0,-2319.62 0,-3479.43 0,-23.5 9.63,-44.9 25.16,-60.45l0.06 -0.06c15.55,-15.52 36.94,-25.16 60.45,-25.16l1480.93 0c23.5,0 44.9,9.63 60.45,25.16l0.06 0.06c15.52,15.55 25.16,36.94 25.16,60.45 0,1159.81 0,2319.62 0,3479.43zm-31.62 -1416.87l-1589.02 0 0 1416.87c0,71.98 188.49,117.09 434.76,137.85 102.74,8.66 214.81,12.69 327.36,12.37 112.48,-0.32 226.25,-5.01 332.44,-13.78 275.02,-22.7 494.46,-70.16 494.46,-136.44l0 -1416.87zm1605.52 -2022.93c-0.27,-8.69 6.56,-15.97 15.25,-16.24 8.69,-0.27 15.97,6.56 16.24,15.25 16.66,516.53 -50.38,897.61 -254.52,1151.17 -204.64,254.18 -545.4,378.86 -1075.54,381.67 -8.69,0.03 -15.78,-6.99 -15.81,-15.69 -0.04,-8.69 6.99,-15.77 15.68,-15.81 519.78,-2.76 852.76,-123.61 1051.08,-369.94 198.83,-246.96 264.02,-621.41 247.61,-1130.42zm-1510.37 -127.44c0,-8.73 7.08,-15.81 15.81,-15.81 8.73,0 15.81,7.08 15.81,15.81l0 2110.74c317.05,9.43 610.66,-9.13 879.45,-57.3 272.43,-48.82 519.43,-128.1 739.6,-239.51 2.94,-1.66 6.43,-2.39 10.02,-1.86 8.63,1.26 14.6,9.28 13.34,17.91 -69.95,472.58 -239.11,861.02 -513.2,1160.41 -273.89,299.17 -652.15,508.96 -1140.46,624.47 -1.44,0.44 -2.97,0.67 -4.56,0.67 -8.73,0 -15.81,-7.08 -15.81,-15.81l0 -3599.72zm31.62 2142.26l0 1437.43c473.1,-114.91 839.96,-319.96 1105.99,-610.55 263.83,-288.19 428.91,-660.96 500.56,-1113.77 -216.03,105.8 -456.97,181.65 -721.54,229.07 -270.74,48.52 -566.2,67.24 -885.01,57.81zm-1841.49 1437.43l0 -1437.43c-318.81,9.43 -614.26,-9.3 -885.01,-57.81 -28.72,-5.15 -57.15,-10.63 -85.31,-16.44 20.9,24.6 40.62,49.88 59.09,75.86 383.27,539.1 511.86,970.4 594.76,1339.77 99.65,36.98 205.12,69.02 316.47,96.07zm-1596.69 -1665.89c46.65,260.8 125.35,494.14 237.16,699.13 264.05,143.24 475.26,371.42 597.21,647.8 35.54,23.38 72.17,45.83 109.93,67.33 -108.22,-341.37 -233.45,-640.95 -515.46,-1004.58 -130.97,-168.88 -276.41,-301.37 -428.84,-409.69zm3049.1 -1766.71l-1064.39 0c-38.42,0 -69.85,31.43 -69.85,69.85l0 1206.06c0,38.41 31.43,69.85 69.85,69.85l1064.39 0c38.42,0 69.85,-31.44 69.85,-69.85l0 -1206.06c0,-38.41 -31.43,-69.85 -69.85,-69.85z"/>
   <path class="fil1" d="M11109.91 11188.63c-155.02,-99.4 -216.58,-174.81 -186.37,-220.14 39.94,-59.93 142.2,18.07 272.67,107.97 403.52,281 1603.71,497.85 2046.91,1121.25 684.88,963.36 549.83,1580.97 807.39,2116.52 152.21,234.9 -103.15,234.74 -192.06,0 -309.58,-863.78 -308.32,-1312.96 -821.31,-1974.44 -574.89,-741.26 -1417.91,-789 -1927.22,-1151.16z"/>
   <path class="fil1" d="M24542.77 15119.54l-186.15 0c-129.86,4.14 -139.71,-44.17 -153.71,-111.45l-17.4 -73.73c-220.22,-7.28 -247.96,3.87 -259.95,-246.19 -7.72,-161.02 1.15,-332.01 -24.81,-487.17 -24.56,-146.89 -38.56,-212.79 -49.24,-360.21l-229.49 -453.72c239.36,-248.36 335.38,-434.24 411.02,-596.28 43.44,43.47 126.88,93.2 168.63,134.9 68.25,68.15 -10.23,894.94 -17.11,1044.37 -9.2,199.7 -88.72,270.74 -22.6,635.96 47.04,259.8 198.27,70.24 386.39,330.04 10.43,14.4 23.24,35.68 36.76,59.81 72.92,130.2 20.31,123.88 -42.33,123.68z"/>
   <path class="fil1" d="M27053.37 15120.98l-200.05 0c-113.22,3.05 -135.17,-27.5 -164.31,-102.58l-18.5 -78.39c-220.22,-7.28 -247.96,3.87 -259.95,-246.19 -7.72,-161.03 1.15,-332.01 -24.8,-487.17 -24.57,-146.89 -53.95,-289.14 -64.64,-436.56l-34.45 -625.3c45.25,37.98 87.56,40.79 235.58,55.81 105.15,4.9 199.75,-6.69 256.13,14.03 68.24,68.16 -101.93,611.65 -108.82,761.07 -9.2,199.7 -88.72,270.74 -22.6,635.96 47.04,259.8 198.27,70.24 386.39,330.04 15.65,21.61 26.87,43.09 48.65,81.46 12.28,21.63 58.22,97.08 -28.63,97.82z"/>
   <path class="fil1" d="M25648.53 11344.22c6.71,-27.86 -164.72,17.62 -170.47,56.13 7.98,168.62 15.96,337.25 23.94,505.87 2.11,44.44 44,72.53 88.51,72.53 0,0 0.01,0 0.01,0 44.51,0 73.43,-44.01 72.53,-88.51l-14.52 -546.03z"/>
   <path class="fil1" d="M20581.06 12429.26c-6.31,-12.16 -10.91,-23.3 35.43,-50.28 37.97,-22.1 35.17,-9.55 52.88,2.69 40.07,-16.3 204.43,-138.68 220.31,-188.99 -19.7,-20.31 -73.66,-5.54 -101.37,13.09 -15.15,10.19 -19.04,7.36 -35.78,8.65l-98.96 24.02c-2.26,-2.09 -4.87,-5.06 -8.76,-9.89 -14.63,5.35 -66.54,16.38 -79.02,9.79 5.64,-27.09 8.01,-19.48 -4.98,-42.17 -21.63,-10.21 -42.24,-28.65 -41.63,-53.71 -77.41,-134.23 -230.01,-429.34 -309.1,-594.79 -49.3,-103.13 -55.31,-127.63 -170.37,-185.04 -58.92,-29.4 -224.11,-75.43 -352.69,-123.94 -25.37,-6.43 -32.21,-21.35 -27.69,-35.7 1.1,-8.63 -1.04,-24.54 4.53,-42.67 43.82,-1.79 52.15,68.31 117.55,4.8 35.51,13.22 67.5,82.19 97.73,97.26 156.92,14.69 110.49,83.28 198.69,10.66 7.5,-21.37 0.87,-43.8 14.74,-58.83 12.03,-27.67 -58.52,-53.91 -76.53,-67.1 -26.44,-19.38 -21.65,-16.06 -24.68,-28.29 -17.85,-21.28 -59.24,-11.13 -87.71,-26.46 -5.5,-2.97 -28.18,-17.58 -35.04,-24.15 -20.38,-19.5 -4.71,-30.23 -17.11,-38.06 -6.61,-32.95 -98.34,-62.96 -119.47,-78.81 -15.11,-11.34 -20.25,-2.84 -31.42,-14.7l-13.65 -10.81c-1.21,0.21 -15.04,-13.47 -19.55,-20.13 -36.98,-33.86 20.9,11.24 31.55,17.61 68.8,41.22 205.24,44.2 285.48,47.56 114.76,4.79 92.46,8.54 107.68,-34.32 6.56,-18.43 29.2,-25.84 35.92,1.89 24.72,17.15 52.59,30.48 83.27,38.49 19.78,-1.16 18.46,-5.28 40.28,-2.44 16.82,2.19 19.86,4.1 34,-2.56 13.19,-14.32 18.89,-10.77 23.26,-34.41 8.65,-56.69 55.18,-62.07 53.14,-109.13 -2.76,-10.65 -2.35,-36.33 -32.04,-31.06 -17.76,3.15 -33.26,-17.26 -45.78,-22.48 -31.95,-1.73 -57.22,-4.92 -111.82,19.88 -83.34,17 -32.22,-33.2 -72.71,-42.16 -18.38,-4.07 -66.8,5.66 -90.56,6.07 -151.27,2.66 -250.53,-18.81 -279.02,-24.86 -18.31,-3.89 -72.41,-82.38 -68.78,-120.74 1.2,-11.58 -1.09,-14.14 -8.21,-21.03 -6.77,-6.53 -3.43,-16.69 -7.69,-24.13 -15.4,-6.69 -19.47,-1.23 -23.31,-26.9 -10.7,-0.97 -7.7,1.36 -8.64,-1.41 -22.98,-55.45 -74.42,-153.07 -92.23,-185.71 -6.92,-12.69 -19.76,-28.42 -17.55,-45.43 5.14,-39.59 -0.4,-22.75 -6.71,-52.65 -6.34,-30.05 -9.57,-23.97 -36.71,-22.36 0.45,-7.46 2.43,-5.73 -4.11,-6.61 -4.93,-17.32 -2.07,-14.96 -15.64,-34.62 -0.19,10.52 2.05,17.13 3.89,27.72 0.74,4.31 1.99,7.99 2.24,12.12 0.96,15.84 1.74,13.08 -3.69,16.65l-181.16 -151.83c48.7,6.37 124.56,63.36 169.74,87.94 31.76,-27.51 48.72,-1.61 101.58,-22.77 19.57,-7.83 19.76,-18.52 18.82,-43 -1.36,-35.92 17.36,-19.42 19.26,-44.49 -4.29,-4.13 -5.93,-3.04 -3.26,-7.35l6.7 -4.43c9.22,-13.22 -3.86,-27.45 19.8,-33.94 49.85,-13.67 17.46,-38.53 2.69,-63.7 -7.26,-12.37 -14.61,-24.3 -17.87,-39.69 0.74,-10.06 3.35,-13.67 4.29,-23.39 0.89,-9.22 -0.49,-19.41 0.06,-29.65l-2.43 -51.8 -5.23 -9.34c7.3,-3.69 5.99,-2.98 11.74,-3.26 26.69,0.09 -120.15,25.77 -174.2,31.94 -28.13,-87.2 -270.84,-2.38 -270.4,-2.28 4.99,60.46 -6.5,65.69 20.96,117.92 9.13,17.36 17.48,25.48 24.36,46.92 14.26,44.37 50.68,33.26 23.07,88.51 -37.39,4.66 -27.42,0.19 -46.61,59.86 -17.67,90.7 -74.33,146.54 -103.27,227.78 -51.93,217.04 56.93,332.19 50.87,503.24 5.86,111.83 -203.05,659.71 77.65,702.08 248.06,25.44 466.14,-27.95 709.6,46.54 107.35,91.52 282.37,618.52 395.48,784.32 56.76,-0.78 25.69,-4.66 79.06,-9.19 1.94,2.11 14.23,110.15 38.98,98.22 120.43,-39.56 126.93,-51.34 167.87,-74.57zm-621.44 -1178.86c9.55,-34.2 31.07,-26.3 43.54,2.58 11.34,-8.47 10.73,-13 19.73,-15.17 40.83,-9.88 18.73,75.44 -17.96,32.89 -12.88,-14.94 -36.95,3.89 -45.31,-20.3z"/>
   <path class="fil1" d="M20043.01 11191.68l16.8 62.52c2140.65,381.87 3864.63,-230.29 6180.32,-530.52 -9.44,-7.65 -24.14,-38.98 -33.58,-46.61 -2418.31,360.59 -4196.85,880.07 -6163.54,514.62z"/>
   <path class="fil1" d="M17831.81 9893.88l-5486.2 0c-35.73,0 -64.96,-29.23 -64.96,-64.96l0 -0c0,-35.73 29.23,-64.96 64.96,-64.96l5486.2 0c35.73,0 64.96,29.23 64.96,64.96l0 0c0,35.73 -29.23,64.96 -64.96,64.96z"/>
   <path class="fil1" d="M12164.3 14061.1l80.74 406.7c10.22,46.24 82.8,392.11 77.98,409.75 -169.93,17.56 -157.61,15.04 -323.43,-0.64 5.72,-62.64 25.52,-144.33 39.09,-206.34l82.89 -405.39c13.87,-63.47 25.22,-144.99 42.73,-204.09zm213.35 121.61c8.52,4.28 4.43,-3.78 13.87,16.42l-13.87 -16.42zm42.82 672.86c-3.67,4 5.4,2.95 -10.75,5.57l-4.96 -11.15 -137.8 -734.07c16.19,13.54 16.65,17.09 29.81,34.71 10.08,13.5 17,22.7 27.87,37.55 19.53,26.69 37.48,48.56 57.95,76.66 37.3,51.22 74.7,100.26 113.32,152.13 13.55,18.2 208.53,293.28 217.05,313.13 -39.53,30.84 -232.16,123.1 -292.5,125.47zm-499.34 4.33c-48.54,-6.77 -122.58,-35.04 -165.43,-52.94 -22.4,-9.36 -124.07,-55.37 -143.38,-76.86l446.33 -615.91c-2.43,44.79 -135,741.76 -137.53,745.7zm596.04 -795.27c16.06,5.28 -4.98,-5.74 5.68,2.17 4.53,3.36 3.56,2.75 6.59,6.3 -23.88,-5.05 -8.16,-1.44 -12.27,-8.46zm0 0c-15.27,-3.17 -9.04,-3.76 -12.02,-7.94 19.88,4.96 8.95,3.42 12.02,7.94zm-147.01 -15.53c38.71,11.81 503.86,307.77 564.82,348.17 26.07,17.28 54.29,37.54 79.11,50.69 -24.12,53.83 -190.68,220.36 -235.59,235.56 -43.98,-73.83 -152.59,-228.83 -206.87,-311.47 -26.13,-39.78 -184.39,-281.96 -201.47,-322.94zm-822.21 638.48c-16.21,-8.24 -50.69,-37.52 -65.24,-50 -43.63,-37.41 -150.83,-139.02 -169.41,-184.45 11.66,-12.62 58.55,-40.93 77.48,-53.28 80.83,-52.7 501.63,-332.59 565.15,-351.84 -5.06,15.76 -83.16,141.41 -97.86,165.1 -66.76,107.58 -132.68,216.48 -204.22,318.93 -20.75,29.71 -91.46,141.58 -105.9,155.53zm426.34 -537.41c-6.11,18.34 -9.18,16.84 -21.44,28.5 2.64,-12.23 8.08,-22.06 17.95,-28.96l64.17 -98.12c7.69,-12.15 14.12,-28.38 26.31,-27.21 5.64,14.45 -20.3,39.35 -38.45,64.99 -11.36,16.05 -35.96,49.35 -48.54,60.79zm403.35 32.53c-20.09,-16.71 -71.92,-88.73 -92.78,-116.37 -8.33,-11.04 -28.51,-30.12 -21.33,-43.74 12.9,3.64 17.8,17.3 31.48,37.49 9.78,14.44 17,26.39 27.84,41.47 10.7,14.89 51.15,68.85 54.8,81.14zm127.51 -126.01c-36.72,-20.26 -87,-57.89 -124.55,-82.2 -30.07,-19.48 -35.6,-16.77 -32.02,-36.63 19.54,3.67 61.32,44.5 79.46,58.41l77.11 60.43zm-686.68 2.8c23.66,-17 48.27,-43.61 74.26,-61.72 19.67,-13.7 63.24,-53.63 80.94,-58.76l4.38 6.35c-6.61,13.21 -21.5,19.08 -37.98,30.58l-81.7 56.71c-12.51,8.65 -27.13,20.77 -39.91,26.85zm-551.94 327.63c-41.33,-72.51 -110.49,-213.69 -126.46,-311.03l749.48 -137.75c-12.7,32.71 -448.65,329.78 -542.32,394.87 -19.31,13.42 -62.14,45.94 -80.7,53.9zm1166.42 -450.09l753.04 138.96c-11.72,73.72 -64.95,203.83 -104.36,271.98 -8.51,14.71 -10.7,22.83 -21.74,33.25 -21.63,-9.65 -301.35,-195.48 -324.67,-211.25 -56.44,-38.18 -102.39,-73.59 -153.85,-111.61 -25.85,-19.09 -135.34,-102.51 -148.43,-121.33zm-288.7 -266.45c97.41,-15.05 172.28,61.57 184.37,144.39 14.57,99.87 -59.32,179.15 -144.34,189.43 -99.28,12.01 -175.54,-58.73 -186.2,-143.91 -13.21,-105.47 57.57,-176.22 146.18,-189.92zm1058.8 9.35c23.56,79.21 8.2,235.77 -1.75,319.54 -23.46,0.98 -351.67,-71.2 -406.27,-81.93 -68.03,-13.37 -137.13,-26.8 -205.18,-40.52 -60.61,-12.22 -153.29,-21.79 -206.27,-40.37l410.97 -79.36c68.18,-13.82 137.09,-27.74 205.07,-41.21 33.38,-6.61 184.77,-44.78 203.43,-36.15zm-2079.7 317.23c-8.26,-62.49 -23.97,-269.52 1.42,-318.1 35.39,1.19 812.43,152.57 823.91,158.03 -67.47,15.93 -138.46,25.4 -207.34,39.85 -87.36,18.33 -602.36,123.22 -617.99,120.22zm1355.22 -355.16l-7.05 7.43c-2.84,2.45 -5.84,4.41 -8.77,6.61l-79.74 62.66c-6.02,4.7 -8.84,7.15 -15.3,11.69 -18.41,12.93 -16.83,4.98 -17.17,4.9 -2.61,-16.24 45.97,-41.33 60.19,-50.58 14.58,-9.48 55,-38.79 67.84,-42.71zm0 0c4.18,-7.48 -0.97,-0.79 5.13,-7.4l39.24 -25.3c-8.8,13.08 -32.05,28.7 -44.37,32.7zm-647.24 -17.09c24.36,19.13 50.91,34.6 76.1,53.22 33.8,24.98 69.07,37.14 66.57,59 -10.47,-2.4 -131.48,-94.44 -143.7,-106.91 -21.21,-8.06 -22.91,-17.53 -42.5,-34.02l39.52 23.94c0.51,0.44 1.69,3 2.05,2.31 0.37,-0.71 1.33,1.62 1.96,2.46zm-692.13 -25.39c15.22,-100.76 83.56,-239.24 127.5,-311.17 17.16,6.85 27.81,16.91 42.38,26.5 173.7,114.3 385.41,261.43 546.07,388.77 12.34,9.78 22.67,19.92 33.68,29.43l-749.63 -133.54zm1301.46 133.45c101.06,-94.15 336.31,-248 459.29,-336.05l156.11 -106.04 7.91 7.99c39.72,49.31 113.74,236.92 122.26,296.91 -19.9,6.13 -717.14,137.06 -745.57,137.19zm-74.82 -224.69l-70.35 115.09c-23.85,38.04 -15.65,31.59 -30.74,28.3 0.1,-11.54 2.89,-12.12 10.23,-21.74 20.85,-27.34 76.16,-109.07 90.86,-121.65zm-310.63 147.01c-16.16,-12.46 -59.67,-92.84 -81.77,-123.94 -7.73,-10.88 -18.8,-26.74 -24.04,-39.44l92.9 124.67c17.35,26.39 27.32,28.33 12.91,38.71zm310.63 -147.01c5.11,-14.1 12.4,-21.27 21.58,-28.99l-12.8 23.14c-1.23,1.33 -4.27,6.02 -5.44,4.04 -0.5,-0.84 -2.22,1.23 -3.34,1.81zm1.28 122.73c11.06,-27.2 33.25,-60.91 49.21,-86.86 39.31,-63.92 328.01,-516.69 362.74,-556.66 23.7,7.4 110.51,88.46 128.27,106.42 24.62,24.9 88.69,92.98 104.85,126.99 -64,44.7 -591.08,385.83 -645.07,410.11zm-1056.8 -409.04c25.29,-50.67 196.28,-217.88 238,-234.09 33.5,47.2 71.87,103.24 105.68,155.22 36.82,56.63 282.31,430.89 301.19,482.4 -48.64,-19.15 -280.04,-167.63 -328.51,-197.37 -107.22,-65.79 -212,-139.38 -316.35,-206.16zm301.54 -276.77c3.79,-3.91 2.89,-3.48 8.85,-7.93l26.72 -15.71c66.9,-36.12 201.17,-102.41 269.87,-107.55 6.97,12.25 140.54,702.4 142.07,746.02 -25.37,-21.15 -355.64,-480.91 -393.75,-536.28 -17.08,-24.82 -39.36,-51.66 -53.76,-78.56zm658.38 609.94c5.64,-62.77 51.52,-296.12 65.44,-375.7 21.16,-120.9 52.73,-246.19 70.19,-366.44 46.61,4.08 128.67,35.78 167.52,53.17 61.38,27.48 117.5,64.24 140.59,74.43 -7.8,16.68 -17.81,27.7 -27.76,42.56 -55.88,83.52 -386.44,553.09 -416,571.96zm-104.37 62.65c-9.41,-22.65 -42.67,-225.68 -55.46,-281.27 -21.29,-92.59 -38.24,-186.26 -58.69,-279.21l-50.22 -247.07c-2.44,-16.73 -2.37,-15.94 15.48,-18.64 112.64,-17.04 199.89,-7.97 309.93,2.55 -8.8,66.32 -27.75,141.52 -41.52,207.37 -37.57,179.57 -97.81,450.16 -119.51,616.28zm-93.89 -893.11c-227.4,16.65 -431.99,107.08 -597.02,236.04 -28.45,22.23 -49.82,42.07 -74.54,63.94 -28.5,25.22 -44.52,45.7 -69.84,72.52 -164.74,174.48 -310.11,493.63 -277.41,836.22 15.02,157.35 60.91,307.19 126.26,426.63 98.05,179.21 230.69,322.95 405.15,429.64 56.3,34.43 121.07,67.77 188.86,91.96 485.71,173.36 985.04,13.44 1283.28,-381.65 157.87,-209.14 242.45,-486.15 217.37,-757.91 -53.81,-583.04 -556.07,-1064.67 -1202.11,-1017.39z"/>
   <path class="fil1" d="M12088.64 12694.67c346.69,-27.84 667.89,129.61 840.2,296.89 51.43,49.93 90.92,89.31 138.2,150.37 393.78,508.54 281.61,1228.44 -208.72,1598.19 -321.16,242.19 -725.66,313.09 -1109.53,162.26 -68.81,-27.04 -135.87,-60.38 -191.72,-96.74 -80.42,-52.36 -132.44,-91.3 -199.11,-158.69 -89.93,-90.9 -149.22,-168.2 -210.92,-289.22 -177.7,-348.5 -168.3,-797.44 48.2,-1126.6 20.49,-31.15 36.91,-54.65 58.34,-84.01l64.97 -77.36c153.23,-176.02 419.52,-346.95 770.09,-375.1zm1346.75 1208.39c12.44,-197.17 -25.47,-380.88 -90.33,-542.92 -87.42,-218.43 -231.25,-397.58 -413.45,-540.5 -55.06,-43.19 -127.63,-87.67 -197.01,-122.34 -412.86,-206.35 -871.93,-170.94 -1259.87,67.03 -117.2,71.89 -252.28,195.31 -330.17,304.54 -45.43,63.71 -83.28,119.81 -121.95,197.35 -163.03,326.89 -176.43,709.01 -41.67,1049.94 63.78,161.37 140.69,264.18 248.34,386.41 334.07,379.29 934.99,519.02 1410.67,315.43 152.48,-65.26 227.6,-112.79 347.13,-210.59 121.24,-99.21 231.16,-233.9 316,-399.58 77.38,-151.12 120.04,-310.17 132.31,-504.74z"/>
   <path class="fil1" d="M12273.67 13853.05c-20.93,141.61 -240.94,120.71 -220.55,-33.11 7.53,-56.82 63.03,-101.61 128.63,-92.37 53.7,7.57 101.56,60.31 91.92,125.49zm33.99 15.39c22.78,-89.3 -46.15,-162.4 -113.95,-176.47 -90.92,-18.88 -158.05,43.22 -174.06,113.11 -43.11,188.09 237.3,262.16 288.01,63.36z"/>
   <path class="fil1" d="M20274.65 10916.64c195.61,-826.49 864.92,-1853.89 1739.22,-2481.8 111.14,1368.82 -265.34,1565.09 -897.38,2488.31 514.39,-704.26 1087.58,-1121.59 909.69,-2529.33 -461.89,334.74 -1379.64,1042.2 -1823.2,2466.83l71.67 55.98z"/>
   <path class="fil1" d="M12339.19 9647.26c-2.58,38.62 61.07,66.48 93.01,66.48l5315.31 0c36.12,0 118.31,-40.68 86.58,-84.31 -361.06,-496.35 -1640.48,-674.64 -2408.65,-711.95l0 -71.57c0,-46.37 -37.94,-84.32 -84.32,-84.32l-144.08 0 0 -35.07c0,-42.98 -25.85,-80.22 -62.76,-96.94 0.07,-2.86 0.11,-5.75 0.11,-8.66 0,-66.27 -19.57,-119.99 -43.7,-119.99 -24.13,0 -43.7,53.72 -43.7,119.99 0,2.91 0.04,5.8 0.11,8.66 -36.91,16.72 -62.76,53.96 -62.76,96.94l0 35.07 -144.09 0c-46.38,0 -84.32,37.94 -84.32,84.32l0 72.31c-929.01,45.81 -2401.32,278.57 -2416.76,729.05z"/>
   <path class="fil1" d="M26491.97 11844.28l-781.41 150.07 6.46 131.42 881.93 -175.86 -106.98 -105.63zm-1043.11 200.34l-4554.75 874.77c-206.19,52.07 -242.54,125.94 -289.47,221.37 -95.47,194.11 -232.12,471.46 -1702.3,823.58 12.09,14.79 22.67,33.69 30.05,54.04 9.79,27.01 14.25,57.21 9.55,84.52 1494.37,-374.29 1687.8,-662.82 1811.33,-847.3 52.47,-78.35 93.06,-138.97 206.98,-181.02l1.64 -0.6 4492.78 -895.88 -5.8 -133.47z"/>
   <path class="fil1" d="M19575.78 9892.15c-4.06,-14.22 -0.08,-15.82 -0.07,-15.85 26.52,-9.05 92.14,2.59 98.06,-27.71 -7.3,-12.61 -16.58,-6.3 -28.43,-16.34 5.51,-4.14 35.15,-14.26 8.26,-47.2l-40.46 -35.65c-13.3,-11.46 -29.49,-19.62 -44.04,-31.15 -34.64,-27.43 -76.28,-51.51 -119.87,-63.91 -18.1,-5.15 -9.86,-8.01 -20.83,-15.74 -22.07,-15.55 -39.59,4.06 -61.84,3.02 -64.78,-3.06 -126.89,21.82 -178.26,58.13 -109.76,77.59 -31.29,165.72 -27.37,177.5 30.09,60.26 282.09,27.58 414.86,14.91z"/>
  </g>
 </g>
</svg>
